<?xml version="1.0" standalone="no"?>
<!DOCTYPE svg PUBLIC "-//W3C//DTD SVG 20010904//EN"
 "http://www.w3.org/TR/2001/REC-SVG-20010904/DTD/svg10.dtd">
<svg version="1.0" xmlns="http://www.w3.org/2000/svg"
 width="1024.000000pt" height="1024.000000pt" viewBox="0 0 1024.000000 1024.000000"
 preserveAspectRatio="xMidYMid meet">
<metadata>
Created by potrace 1.11, written by Peter Selinger 2001-2013
</metadata>
<g transform="translate(0.000000,1024.000000) scale(0.100000,-0.100000)"
fill="#000000" stroke="none">
<path d="M0 5120 l0 -5120 1678 0 c1656 0 1676 1 1635 19 -53 25 -126 92 -147
135 -28 59 -21 127 25 240 39 94 42 111 49 231 10 159 22 197 81 257 90 91
210 128 250 79 11 -13 21 -22 23 -20 2 2 22 33 44 69 42 68 57 102 178 418 41
107 87 222 103 256 26 58 27 65 13 91 -8 16 -15 58 -16 97 l-1 69 82 80 83 80
37 117 c35 114 175 425 285 633 60 115 375 633 503 829 45 69 124 177 175 240
112 140 155 223 147 283 -4 23 -45 145 -91 270 -111 297 -138 386 -137 456 0
31 -4 106 -9 167 -8 94 -19 136 -69 285 -53 154 -62 194 -82 344 -12 94 -22
230 -23 302 -1 123 -2 132 -19 127 -224 -71 -355 -99 -516 -113 -117 -11 -142
-17 -135 -34 9 -26 -16 -36 -117 -48 -139 -16 -154 -12 -184 54 -13 29 -27 69
-30 90 -6 28 -11 36 -24 33 -34 -10 -171 -26 -296 -36 -71 -5 -197 -23 -279
-40 -82 -16 -150 -30 -152 -30 -2 0 2 -14 8 -30 26 -75 -40 -261 -116 -328
-32 -28 -44 -32 -91 -32 -73 0 -147 30 -225 90 -107 84 -181 129 -234 145 -27
8 -127 26 -222 40 -242 36 -339 70 -410 147 -54 58 -67 127 -38 211 25 72 55
91 186 116 62 12 138 21 168 21 30 0 95 9 144 20 50 11 101 20 114 20 14 0 89
29 167 65 78 36 149 65 159 65 10 0 34 -16 54 -36 36 -36 37 -36 97 -30 133
14 357 60 470 97 66 22 186 71 266 110 l147 71 8 72 c4 39 8 84 8 101 1 35 38
59 164 105 86 31 126 37 137 20 11 -18 40 -11 90 23 28 19 95 64 150 101 125
84 230 135 368 177 59 18 104 36 99 39 -4 4 -50 22 -102 40 -52 18 -203 75
-334 127 -427 169 -427 169 -754 528 -212 232 -291 313 -368 375 -61 49 -84
60 -170 84 -114 33 -156 52 -239 111 -33 23 -85 55 -115 70 -95 47 -116 77
-85 122 13 18 12 22 -5 38 -25 23 -25 57 0 80 19 17 34 17 87 -1 11 -4 9 0 -7
11 -87 62 -107 102 -72 145 26 32 63 28 131 -14 33 -20 62 -36 65 -36 14 0 3
28 -29 80 -42 65 -44 92 -9 119 51 40 75 29 252 -106 46 -35 87 -61 93 -58 16
11 10 66 -12 102 -12 18 -18 40 -15 48 8 22 65 18 111 -8 40 -23 53 -46 115
-207 39 -103 142 -205 347 -343 145 -97 303 -177 546 -276 276 -113 315 -135
460 -260 77 -67 172 -120 267 -149 36 -11 171 -41 300 -67 129 -26 270 -58
314 -72 78 -25 78 -25 100 -5 29 27 102 45 154 38 25 -3 107 3 190 15 182 26
239 22 447 -30 177 -44 266 -73 368 -120 55 -25 79 -31 120 -29 51 3 52 4 55
36 3 26 0 32 -17 32 -11 0 -43 5 -71 11 -39 8 -56 19 -76 44 -35 46 -42 106
-18 150 17 33 18 36 1 64 -16 28 -16 30 8 65 29 43 30 49 10 66 -22 18 -19 45
11 96 l26 44 -26 31 c-46 54 -38 70 77 155 56 42 105 82 109 88 5 6 5 23 2 37
-6 33 17 92 57 142 l31 38 -40 122 c-49 148 -76 272 -97 443 -14 109 -22 142
-55 214 -21 47 -46 125 -56 173 -15 76 -25 101 -76 180 -69 108 -87 156 -71
198 l11 29 -3339 0 -3339 0 0 -5120z m5498 4406 l103 -184 67 -15 c37 -8 131
-28 210 -43 78 -16 142 -32 142 -36 0 -6 -135 -158 -253 -285 l-30 -32 23
-211 c12 -116 21 -213 18 -215 -2 -3 -88 34 -191 80 -103 47 -194 85 -201 85
-7 0 -98 -38 -201 -85 -103 -47 -189 -84 -191 -83 -3 3 29 318 40 395 4 29 -8
45 -139 190 -79 87 -141 161 -137 165 4 3 90 23 192 42 102 20 194 41 206 45
12 6 61 80 123 190 56 100 105 181 109 181 4 -1 53 -83 110 -184z"/>
<path d="M6829 10148 c76 -118 83 -123 123 -79 27 30 30 39 25 76 -4 23 -12
54 -18 69 -12 25 -15 26 -101 26 l-88 0 59 -92z"/>
<path d="M7171 10216 c6 -13 25 -28 42 -32 16 -5 33 -16 37 -24 27 -54 51
-134 47 -153 -3 -12 -13 -45 -21 -74 -38 -133 -41 -347 -5 -416 21 -39 269
-345 285 -351 9 -3 31 -6 49 -6 61 0 265 -58 353 -101 72 -35 102 -57 177
-133 139 -140 212 -286 222 -442 5 -70 1 -95 -26 -194 -42 -149 -81 -230 -133
-274 -23 -20 -45 -36 -49 -36 -5 0 -6 -36 -2 -79 3 -48 1 -97 -6 -125 -17 -70
6 -168 117 -486 53 -151 95 -374 95 -505 0 -91 -3 -106 -30 -165 -48 -101 -88
-258 -123 -475 -41 -259 -59 -329 -132 -510 -33 -82 -82 -214 -109 -293 -29
-85 -77 -198 -118 -277 -88 -168 -117 -251 -193 -545 -71 -276 -140 -475 -175
-497 -29 -19 -74 -12 -137 22 -25 13 -46 21 -46 17 0 -5 -29 -59 -65 -122 -36
-62 -63 -116 -60 -118 9 -9 -25 -60 -67 -99 -25 -22 -87 -68 -139 -103 -116
-78 -245 -186 -300 -251 -47 -56 -107 -101 -159 -118 -20 -6 -124 -13 -235
-15 l-200 -4 -23 -44 c-30 -55 -61 -88 -83 -88 -10 0 -34 -20 -54 -44 -43 -53
-59 -59 -345 -136 -36 -9 -98 -33 -137 -54 l-73 -36 0 -51 c0 -29 -8 -65 -19
-87 -10 -20 -33 -93 -51 -162 -39 -150 -57 -189 -110 -231 -36 -29 -40 -37
-40 -79 0 -26 -7 -66 -15 -89 -25 -72 -96 -184 -156 -248 -62 -65 -73 -98 -46
-138 26 -38 26 -67 -5 -168 -56 -193 -57 -193 -186 -184 -48 4 -128 17 -178
29 l-91 23 -54 -99 c-98 -180 -182 -297 -321 -449 -75 -82 -146 -169 -157
-193 -12 -24 -53 -86 -91 -136 -61 -81 -70 -98 -68 -131 2 -33 -4 -44 -51 -91
-44 -45 -59 -70 -92 -156 -43 -114 -61 -139 -123 -169 l-41 -20 3393 -1 3392
0 0 5120 0 5120 -1540 0 -1540 0 11 -24z m-391 -8053 l106 -187 199 -41 c110
-23 206 -44 214 -46 12 -4 -84 -117 -246 -290 l-34 -36 24 -212 c13 -116 22
-213 20 -215 -2 -2 -91 36 -198 85 l-195 89 -186 -85 c-103 -47 -193 -85 -200
-85 -9 0 -12 9 -9 28 3 15 14 110 25 210 l20 184 -132 145 c-180 196 -171 179
-101 193 32 7 128 27 212 44 l155 32 105 187 c59 103 108 187 111 187 3 0 52
-84 110 -187z"/>
<path d="M5634 7216 c38 -85 83 -206 162 -435 52 -152 140 -389 194 -527 55
-138 102 -270 106 -293 4 -24 1 -60 -6 -87 -12 -43 -12 -48 6 -60 10 -7 26
-20 35 -28 14 -14 18 -14 36 7 32 34 35 58 14 117 -23 65 -18 105 15 127 22
14 24 21 24 122 0 58 4 135 10 171 20 136 13 226 -29 371 -22 74 -45 164 -51
201 -5 37 -13 74 -16 82 -9 24 -39 28 -117 16 -69 -11 -76 -11 -116 10 -58 29
-125 99 -147 155 -11 25 -23 45 -29 45 -5 1 -29 5 -53 9 -31 6 -42 5 -38 -3z"/>
</g>
</svg>
